<svg width="25" height="25" viewBox="0 0 25 25" fill="none" xmlns="http://www.w3.org/2000/svg">
<path fill-rule="evenodd" clip-rule="evenodd" d="M12 6.38468H9.93666C9.9056 6.38468 9.87478 6.37888 9.8457 6.36755L5.09669 4.51721C4.96153 4.46455 4.81095 4.53686 4.76238 4.67775L4.01505 6.84569C3.99831 6.89428 3.99546 6.94684 4.00687 6.99706L5.17875 12.1571C5.18957 12.2047 5.18758 12.2545 5.17299 12.3011L4.14387 15.5851C4.12743 15.6375 4.12703 15.694 4.14273 15.7467L5.12165 19.0327C5.16272 19.1706 5.30188 19.2499 5.43629 19.2121L8.567 18.3311C8.641 18.3103 8.7201 18.3246 8.78292 18.3702L10.7704 19.8116C10.8139 19.8431 10.8656 19.86 10.9186 19.86H12H13.0814C13.1344 19.86 13.1861 19.8431 13.2296 19.8116L15.2171 18.3702C15.2799 18.3246 15.359 18.3103 15.433 18.3311L18.5637 19.2121C18.6981 19.2499 18.8373 19.1706 18.8784 19.0327L19.8573 15.7467C19.873 15.694 19.8726 15.6375 19.8561 15.5851L18.827 12.3011C18.8124 12.2545 18.8104 12.2047 18.8212 12.1571L19.9931 6.99706C20.0045 6.94684 20.0017 6.89428 19.9849 6.84569L19.2376 4.67775C19.1891 4.53686 19.0385 4.46455 18.9033 4.51721L14.1543 6.36755C14.1252 6.37888 14.0944 6.38468 14.0633 6.38468H12ZM9.99748 13.6353L9.32921 13.932C9.18794 13.9947 9.19437 14.1974 9.33934 14.251L10.3417 14.6219C10.4883 14.6762 10.6255 14.523 10.5556 14.3833L10.2214 13.7156C10.1802 13.6333 10.0816 13.5979 9.99748 13.6353ZM11.9999 16.9597H11.2055C11.1354 16.9597 11.0683 16.9882 11.0196 17.0386L10.8971 17.1655C10.8583 17.2057 10.8336 17.2573 10.8266 17.3127L10.7448 17.963C10.7253 18.1173 10.8456 18.2537 11.0012 18.2537H11.9999H12.0002H12.9989C13.1545 18.2537 13.2748 18.1173 13.2553 17.963L13.1735 17.3127C13.1665 17.2573 13.1418 17.2057 13.103 17.1655L12.9805 17.0386C12.9318 16.9882 12.8647 16.9597 12.7946 16.9597H12.0002H11.9999ZM4.53446 7.1563L5.16483 5.45099C5.22372 5.29168 5.41765 5.23153 5.55635 5.32956L10.5618 8.8672C10.7007 8.96537 10.7085 9.16863 10.5775 9.27717L8.72606 10.8117C8.69824 10.8348 8.6659 10.8518 8.63112 10.8615L5.92271 11.6232C5.78345 11.6623 5.63918 11.5796 5.6027 11.4396L4.52678 7.31106C4.51345 7.2599 4.51613 7.20588 4.53446 7.1563ZM14.6709 13.932L14.0026 13.6353C13.9185 13.5979 13.8198 13.6333 13.7787 13.7156L13.4445 14.3833C13.3746 14.523 13.5118 14.6762 13.6584 14.6219L14.6608 14.251C14.8057 14.1974 14.8122 13.9947 14.6709 13.932ZM18.8353 5.45099L19.4656 7.1563C19.484 7.20588 19.4866 7.2599 19.4733 7.31106L18.3974 11.4396C18.3609 11.5796 18.2166 11.6623 18.0774 11.6232L15.369 10.8615C15.3342 10.8518 15.3018 10.8348 15.274 10.8117L13.4226 9.27717C13.2916 9.16863 13.2994 8.96537 13.4383 8.8672L18.4437 5.32956C18.5824 5.23153 18.7764 5.29168 18.8353 5.45099Z" fill="white"/>
</svg>
